G04*
G04 #@! TF.GenerationSoftware,Altium Limited,Altium Designer,20.0.12 (288)*
G04*
G04 Layer_Physical_Order=2*
G04 Layer_Color=16711680*
%FSLAX25Y25*%
%MOIN*%
G70*
G01*
G75*
%ADD13C,0.01000*%
%ADD14C,0.00500*%
%ADD16C,0.00700*%
%ADD41R,0.05906X0.05906*%
%ADD42C,0.05906*%
%ADD43R,0.05906X0.05906*%
%ADD44C,0.12598*%
%ADD45R,0.06000X0.06000*%
%ADD46C,0.06000*%
%ADD47C,0.07000*%
%ADD48C,0.05000*%
G36*
X260000Y200000D02*
Y160000D01*
X270000Y150000D01*
Y15000D01*
X260000Y5000D01*
Y0D01*
X0D01*
X-0Y210000D01*
X250000Y210000D01*
X260000Y200000D01*
D02*
G37*
%LPC*%
G36*
X253900Y203900D02*
X246100D01*
Y196100D01*
X253900D01*
Y203900D01*
D02*
G37*
G36*
X167900D02*
X160100D01*
Y196100D01*
X167900D01*
Y203900D01*
D02*
G37*
G36*
X240000Y203934D02*
X238982Y203800D01*
X238033Y203407D01*
X237218Y202782D01*
X236593Y201967D01*
X236200Y201018D01*
X236066Y200000D01*
X236200Y198982D01*
X236593Y198033D01*
X237218Y197219D01*
X238033Y196593D01*
X238982Y196200D01*
X240000Y196066D01*
X241018Y196200D01*
X241967Y196593D01*
X242781Y197219D01*
X243407Y198033D01*
X243800Y198982D01*
X243934Y200000D01*
X243800Y201018D01*
X243407Y201967D01*
X242781Y202782D01*
X241967Y203407D01*
X241018Y203800D01*
X240000Y203934D01*
D02*
G37*
G36*
X230000D02*
X228982Y203800D01*
X228033Y203407D01*
X227219Y202782D01*
X226593Y201967D01*
X226200Y201018D01*
X226066Y200000D01*
X226200Y198982D01*
X226593Y198033D01*
X227219Y197219D01*
X228033Y196593D01*
X228982Y196200D01*
X230000Y196066D01*
X231018Y196200D01*
X231967Y196593D01*
X232782Y197219D01*
X233407Y198033D01*
X233800Y198982D01*
X233934Y200000D01*
X233800Y201018D01*
X233407Y201967D01*
X232782Y202782D01*
X231967Y203407D01*
X231018Y203800D01*
X230000Y203934D01*
D02*
G37*
G36*
X220000D02*
X218982Y203800D01*
X218033Y203407D01*
X217218Y202782D01*
X216593Y201967D01*
X216200Y201018D01*
X216066Y200000D01*
X216200Y198982D01*
X216593Y198033D01*
X217218Y197219D01*
X218033Y196593D01*
X218982Y196200D01*
X220000Y196066D01*
X221018Y196200D01*
X221967Y196593D01*
X222781Y197219D01*
X223407Y198033D01*
X223800Y198982D01*
X223934Y200000D01*
X223800Y201018D01*
X223407Y201967D01*
X222781Y202782D01*
X221967Y203407D01*
X221018Y203800D01*
X220000Y203934D01*
D02*
G37*
G36*
X210000D02*
X208982Y203800D01*
X208033Y203407D01*
X207219Y202782D01*
X206593Y201967D01*
X206200Y201018D01*
X206066Y200000D01*
X206200Y198982D01*
X206593Y198033D01*
X207219Y197219D01*
X208033Y196593D01*
X208982Y196200D01*
X210000Y196066D01*
X211018Y196200D01*
X211967Y196593D01*
X212782Y197219D01*
X213407Y198033D01*
X213800Y198982D01*
X213934Y200000D01*
X213800Y201018D01*
X213407Y201967D01*
X212782Y202782D01*
X211967Y203407D01*
X211018Y203800D01*
X210000Y203934D01*
D02*
G37*
G36*
X200000D02*
X198982Y203800D01*
X198033Y203407D01*
X197219Y202782D01*
X196593Y201967D01*
X196200Y201018D01*
X196066Y200000D01*
X196200Y198982D01*
X196593Y198033D01*
X197219Y197219D01*
X198033Y196593D01*
X198982Y196200D01*
X200000Y196066D01*
X201018Y196200D01*
X201967Y196593D01*
X202782Y197219D01*
X203407Y198033D01*
X203800Y198982D01*
X203934Y200000D01*
X203800Y201018D01*
X203407Y201967D01*
X202782Y202782D01*
X201967Y203407D01*
X201018Y203800D01*
X200000Y203934D01*
D02*
G37*
G36*
X190000D02*
X188982Y203800D01*
X188033Y203407D01*
X187218Y202782D01*
X186593Y201967D01*
X186200Y201018D01*
X186066Y200000D01*
X186200Y198982D01*
X186593Y198033D01*
X187218Y197219D01*
X188033Y196593D01*
X188982Y196200D01*
X190000Y196066D01*
X191018Y196200D01*
X191967Y196593D01*
X192781Y197219D01*
X193407Y198033D01*
X193800Y198982D01*
X193934Y200000D01*
X193800Y201018D01*
X193407Y201967D01*
X192781Y202782D01*
X191967Y203407D01*
X191018Y203800D01*
X190000Y203934D01*
D02*
G37*
G36*
X180000D02*
X178982Y203800D01*
X178033Y203407D01*
X177218Y202782D01*
X176593Y201967D01*
X176200Y201018D01*
X176066Y200000D01*
X176200Y198982D01*
X176593Y198033D01*
X177218Y197219D01*
X178033Y196593D01*
X178982Y196200D01*
X180000Y196066D01*
X181018Y196200D01*
X181967Y196593D01*
X182782Y197219D01*
X183407Y198033D01*
X183800Y198982D01*
X183934Y200000D01*
X183800Y201018D01*
X183407Y201967D01*
X182782Y202782D01*
X181967Y203407D01*
X181018Y203800D01*
X180000Y203934D01*
D02*
G37*
G36*
X154000D02*
X152982Y203800D01*
X152033Y203407D01*
X151218Y202782D01*
X150593Y201967D01*
X150200Y201018D01*
X150066Y200000D01*
X150200Y198982D01*
X150593Y198033D01*
X151218Y197219D01*
X152033Y196593D01*
X152982Y196200D01*
X154000Y196066D01*
X155018Y196200D01*
X155967Y196593D01*
X156781Y197219D01*
X157407Y198033D01*
X157800Y198982D01*
X157934Y200000D01*
X157800Y201018D01*
X157407Y201967D01*
X156781Y202782D01*
X155967Y203407D01*
X155018Y203800D01*
X154000Y203934D01*
D02*
G37*
G36*
X144000D02*
X142982Y203800D01*
X142033Y203407D01*
X141218Y202782D01*
X140593Y201967D01*
X140200Y201018D01*
X140066Y200000D01*
X140200Y198982D01*
X140593Y198033D01*
X141218Y197219D01*
X142033Y196593D01*
X142982Y196200D01*
X144000Y196066D01*
X145018Y196200D01*
X145967Y196593D01*
X146782Y197219D01*
X147407Y198033D01*
X147800Y198982D01*
X147934Y200000D01*
X147800Y201018D01*
X147407Y201967D01*
X146782Y202782D01*
X145967Y203407D01*
X145018Y203800D01*
X144000Y203934D01*
D02*
G37*
G36*
X134000D02*
X132982Y203800D01*
X132033Y203407D01*
X131219Y202782D01*
X130593Y201967D01*
X130200Y201018D01*
X130066Y200000D01*
X130200Y198982D01*
X130593Y198033D01*
X131219Y197219D01*
X132033Y196593D01*
X132982Y196200D01*
X134000Y196066D01*
X135018Y196200D01*
X135967Y196593D01*
X136782Y197219D01*
X137407Y198033D01*
X137800Y198982D01*
X137934Y200000D01*
X137800Y201018D01*
X137407Y201967D01*
X136782Y202782D01*
X135967Y203407D01*
X135018Y203800D01*
X134000Y203934D01*
D02*
G37*
G36*
X124000D02*
X122982Y203800D01*
X122033Y203407D01*
X121219Y202782D01*
X120593Y201967D01*
X120200Y201018D01*
X120066Y200000D01*
X120200Y198982D01*
X120593Y198033D01*
X121219Y197219D01*
X122033Y196593D01*
X122982Y196200D01*
X124000Y196066D01*
X125018Y196200D01*
X125967Y196593D01*
X126781Y197219D01*
X127407Y198033D01*
X127800Y198982D01*
X127934Y200000D01*
X127800Y201018D01*
X127407Y201967D01*
X126781Y202782D01*
X125967Y203407D01*
X125018Y203800D01*
X124000Y203934D01*
D02*
G37*
G36*
X114000D02*
X112982Y203800D01*
X112033Y203407D01*
X111219Y202782D01*
X110593Y201967D01*
X110200Y201018D01*
X110066Y200000D01*
X110200Y198982D01*
X110593Y198033D01*
X111219Y197219D01*
X112033Y196593D01*
X112982Y196200D01*
X114000Y196066D01*
X115018Y196200D01*
X115967Y196593D01*
X116781Y197219D01*
X117407Y198033D01*
X117800Y198982D01*
X117934Y200000D01*
X117800Y201018D01*
X117407Y201967D01*
X116781Y202782D01*
X115967Y203407D01*
X115018Y203800D01*
X114000Y203934D01*
D02*
G37*
G36*
X104000D02*
X102982Y203800D01*
X102033Y203407D01*
X101218Y202782D01*
X100593Y201967D01*
X100200Y201018D01*
X100066Y200000D01*
X100200Y198982D01*
X100593Y198033D01*
X101218Y197219D01*
X102033Y196593D01*
X102982Y196200D01*
X104000Y196066D01*
X105018Y196200D01*
X105967Y196593D01*
X106781Y197219D01*
X107407Y198033D01*
X107800Y198982D01*
X107934Y200000D01*
X107800Y201018D01*
X107407Y201967D01*
X106781Y202782D01*
X105967Y203407D01*
X105018Y203800D01*
X104000Y203934D01*
D02*
G37*
G36*
X94000D02*
X92982Y203800D01*
X92033Y203407D01*
X91219Y202782D01*
X90593Y201967D01*
X90200Y201018D01*
X90066Y200000D01*
X90200Y198982D01*
X90593Y198033D01*
X91219Y197219D01*
X92033Y196593D01*
X92982Y196200D01*
X94000Y196066D01*
X95018Y196200D01*
X95967Y196593D01*
X96781Y197219D01*
X97407Y198033D01*
X97800Y198982D01*
X97934Y200000D01*
X97800Y201018D01*
X97407Y201967D01*
X96781Y202782D01*
X95967Y203407D01*
X95018Y203800D01*
X94000Y203934D01*
D02*
G37*
G36*
X84000D02*
X82982Y203800D01*
X82033Y203407D01*
X81218Y202782D01*
X80593Y201967D01*
X80200Y201018D01*
X80066Y200000D01*
X80200Y198982D01*
X80593Y198033D01*
X81218Y197219D01*
X82033Y196593D01*
X82982Y196200D01*
X84000Y196066D01*
X85018Y196200D01*
X85967Y196593D01*
X86782Y197219D01*
X87407Y198033D01*
X87800Y198982D01*
X87934Y200000D01*
X87800Y201018D01*
X87407Y201967D01*
X86782Y202782D01*
X85967Y203407D01*
X85018Y203800D01*
X84000Y203934D01*
D02*
G37*
G36*
X74000D02*
X72982Y203800D01*
X72033Y203407D01*
X71219Y202782D01*
X70593Y201967D01*
X70200Y201018D01*
X70066Y200000D01*
X70200Y198982D01*
X70593Y198033D01*
X71219Y197219D01*
X72033Y196593D01*
X72982Y196200D01*
X74000Y196066D01*
X75018Y196200D01*
X75967Y196593D01*
X76781Y197219D01*
X77407Y198033D01*
X77800Y198982D01*
X77934Y200000D01*
X77800Y201018D01*
X77407Y201967D01*
X76781Y202782D01*
X75967Y203407D01*
X75018Y203800D01*
X74000Y203934D01*
D02*
G37*
G36*
X60000Y207234D02*
X58589Y207095D01*
X57232Y206683D01*
X55981Y206015D01*
X54885Y205115D01*
X53985Y204019D01*
X53317Y202768D01*
X52905Y201411D01*
X52766Y200000D01*
X52905Y198589D01*
X53317Y197232D01*
X53985Y195981D01*
X54885Y194885D01*
X55981Y193985D01*
X57232Y193317D01*
X58589Y192905D01*
X60000Y192766D01*
X61411Y192905D01*
X62768Y193317D01*
X64019Y193985D01*
X65115Y194885D01*
X66015Y195981D01*
X66683Y197232D01*
X67095Y198589D01*
X67234Y200000D01*
X67095Y201411D01*
X66683Y202768D01*
X66015Y204019D01*
X65115Y205115D01*
X64019Y206015D01*
X62768Y206683D01*
X61411Y207095D01*
X60000Y207234D01*
D02*
G37*
G36*
X98000Y170964D02*
Y168000D01*
X100964D01*
X100910Y168414D01*
X100557Y169265D01*
X99996Y169996D01*
X99265Y170557D01*
X98414Y170910D01*
X98000Y170964D01*
D02*
G37*
G36*
X97000D02*
X96586Y170910D01*
X95735Y170557D01*
X95004Y169996D01*
X94443Y169265D01*
X94090Y168414D01*
X94036Y168000D01*
X97000D01*
Y170964D01*
D02*
G37*
G36*
X100964Y167000D02*
X98000D01*
Y164036D01*
X98414Y164090D01*
X99265Y164443D01*
X99996Y165004D01*
X100557Y165735D01*
X100910Y166586D01*
X100964Y167000D01*
D02*
G37*
G36*
X97000D02*
X94036D01*
X94090Y166586D01*
X94443Y165735D01*
X95004Y165004D01*
X95735Y164443D01*
X96586Y164090D01*
X97000Y164036D01*
Y167000D01*
D02*
G37*
G36*
X78000Y165964D02*
Y163000D01*
X80964D01*
X80910Y163414D01*
X80557Y164265D01*
X79996Y164996D01*
X79265Y165557D01*
X78414Y165910D01*
X78000Y165964D01*
D02*
G37*
G36*
X77000D02*
X76586Y165910D01*
X75735Y165557D01*
X75004Y164996D01*
X74443Y164265D01*
X74090Y163414D01*
X74036Y163000D01*
X77000D01*
Y165964D01*
D02*
G37*
G36*
X80964Y162000D02*
X78000D01*
Y159036D01*
X78414Y159090D01*
X79265Y159443D01*
X79996Y160004D01*
X80557Y160735D01*
X80910Y161586D01*
X80964Y162000D01*
D02*
G37*
G36*
X77000D02*
X74036D01*
X74090Y161586D01*
X74443Y160735D01*
X75004Y160004D01*
X75735Y159443D01*
X76586Y159090D01*
X77000Y159036D01*
Y162000D01*
D02*
G37*
G36*
X260000Y147234D02*
X258589Y147095D01*
X257232Y146683D01*
X255981Y146015D01*
X254885Y145115D01*
X253985Y144019D01*
X253317Y142768D01*
X252905Y141411D01*
X252766Y140000D01*
X252905Y138589D01*
X253317Y137232D01*
X253985Y135981D01*
X254885Y134885D01*
X255981Y133985D01*
X257232Y133317D01*
X258589Y132905D01*
X260000Y132766D01*
X261411Y132905D01*
X262768Y133317D01*
X264019Y133985D01*
X265115Y134885D01*
X266015Y135981D01*
X266683Y137232D01*
X267095Y138589D01*
X267234Y140000D01*
X267095Y141411D01*
X266683Y142768D01*
X266015Y144019D01*
X265115Y145115D01*
X264019Y146015D01*
X262768Y146683D01*
X261411Y147095D01*
X260000Y147234D01*
D02*
G37*
G36*
X228953Y118953D02*
X225500D01*
Y115500D01*
X228953D01*
Y118953D01*
D02*
G37*
G36*
X224500D02*
X221047D01*
Y115500D01*
X224500D01*
Y118953D01*
D02*
G37*
G36*
X260551Y124241D02*
X259403Y124090D01*
X258332Y123646D01*
X257413Y122941D01*
X256708Y122022D01*
X256264Y120952D01*
X256113Y119803D01*
X256264Y118655D01*
X256708Y117584D01*
X257413Y116665D01*
X258332Y115960D01*
X259403Y115516D01*
X260551Y115365D01*
X261700Y115516D01*
X262770Y115960D01*
X263689Y116665D01*
X264395Y117584D01*
X264838Y118655D01*
X264989Y119803D01*
X264838Y120952D01*
X264395Y122022D01*
X263689Y122941D01*
X262770Y123646D01*
X261700Y124090D01*
X260551Y124241D01*
D02*
G37*
G36*
X250551D02*
X249403Y124090D01*
X248332Y123646D01*
X247413Y122941D01*
X246708Y122022D01*
X246264Y120952D01*
X246113Y119803D01*
X246264Y118655D01*
X246708Y117584D01*
X247413Y116665D01*
X248332Y115960D01*
X249403Y115516D01*
X250551Y115365D01*
X251700Y115516D01*
X252770Y115960D01*
X253689Y116665D01*
X254395Y117584D01*
X254838Y118655D01*
X254989Y119803D01*
X254838Y120952D01*
X254395Y122022D01*
X253689Y122941D01*
X252770Y123646D01*
X251700Y124090D01*
X250551Y124241D01*
D02*
G37*
G36*
X36353Y121353D02*
X28647D01*
Y113647D01*
X36353D01*
Y121353D01*
D02*
G37*
G36*
X21353D02*
X13647D01*
Y113647D01*
X21353D01*
Y121353D01*
D02*
G37*
G36*
X180000Y118886D02*
X178994Y118754D01*
X178057Y118365D01*
X177252Y117748D01*
X176635Y116943D01*
X176246Y116006D01*
X176114Y115000D01*
X176246Y113994D01*
X176635Y113057D01*
X177252Y112252D01*
X178057Y111635D01*
X178994Y111246D01*
X180000Y111114D01*
X181006Y111246D01*
X181943Y111635D01*
X182748Y112252D01*
X183365Y113057D01*
X183754Y113994D01*
X183886Y115000D01*
X183754Y116006D01*
X183365Y116943D01*
X182748Y117748D01*
X181943Y118365D01*
X181006Y118754D01*
X180000Y118886D01*
D02*
G37*
G36*
X150000D02*
X148994Y118754D01*
X148057Y118365D01*
X147252Y117748D01*
X146635Y116943D01*
X146246Y116006D01*
X146114Y115000D01*
X146246Y113994D01*
X146635Y113057D01*
X147252Y112252D01*
X148057Y111635D01*
X148994Y111246D01*
X150000Y111114D01*
X151006Y111246D01*
X151943Y111635D01*
X152748Y112252D01*
X153365Y113057D01*
X153754Y113994D01*
X153886Y115000D01*
X153754Y116006D01*
X153365Y116943D01*
X152748Y117748D01*
X151943Y118365D01*
X151006Y118754D01*
X150000Y118886D01*
D02*
G37*
G36*
X117500D02*
X116494Y118754D01*
X115557Y118365D01*
X114752Y117748D01*
X114135Y116943D01*
X113746Y116006D01*
X113614Y115000D01*
X113746Y113994D01*
X114135Y113057D01*
X114752Y112252D01*
X115557Y111635D01*
X116494Y111246D01*
X117500Y111114D01*
X118506Y111246D01*
X119443Y111635D01*
X120248Y112252D01*
X120865Y113057D01*
X121254Y113994D01*
X121386Y115000D01*
X121254Y116006D01*
X120865Y116943D01*
X120248Y117748D01*
X119443Y118365D01*
X118506Y118754D01*
X117500Y118886D01*
D02*
G37*
G36*
X87500D02*
X86494Y118754D01*
X85557Y118365D01*
X84752Y117748D01*
X84135Y116943D01*
X83746Y116006D01*
X83614Y115000D01*
X83746Y113994D01*
X84135Y113057D01*
X84752Y112252D01*
X85557Y111635D01*
X86494Y111246D01*
X87500Y111114D01*
X88506Y111246D01*
X89443Y111635D01*
X90248Y112252D01*
X90865Y113057D01*
X91254Y113994D01*
X91386Y115000D01*
X91254Y116006D01*
X90865Y116943D01*
X90248Y117748D01*
X89443Y118365D01*
X88506Y118754D01*
X87500Y118886D01*
D02*
G37*
G36*
X228953Y114500D02*
X225500D01*
Y111047D01*
X228953D01*
Y114500D01*
D02*
G37*
G36*
X224500D02*
X221047D01*
Y111047D01*
X224500D01*
Y114500D01*
D02*
G37*
G36*
X33000Y111421D02*
Y108000D01*
X36421D01*
X36351Y108532D01*
X35953Y109493D01*
X35319Y110319D01*
X34493Y110953D01*
X33532Y111351D01*
X33000Y111421D01*
D02*
G37*
G36*
X18000D02*
Y108000D01*
X21421D01*
X21351Y108532D01*
X20953Y109493D01*
X20319Y110319D01*
X19493Y110953D01*
X18532Y111351D01*
X18000Y111421D01*
D02*
G37*
G36*
X138000Y110964D02*
Y108000D01*
X140964D01*
X140910Y108414D01*
X140557Y109265D01*
X139996Y109996D01*
X139265Y110557D01*
X138414Y110910D01*
X138000Y110964D01*
D02*
G37*
G36*
X137000D02*
X136586Y110910D01*
X135735Y110557D01*
X135004Y109996D01*
X134443Y109265D01*
X134090Y108414D01*
X134036Y108000D01*
X137000D01*
Y110964D01*
D02*
G37*
G36*
X32000Y111421D02*
X31468Y111351D01*
X30507Y110953D01*
X29681Y110319D01*
X29047Y109493D01*
X28649Y108532D01*
X28579Y108000D01*
X32000D01*
Y111421D01*
D02*
G37*
G36*
X17000D02*
X16468Y111351D01*
X15507Y110953D01*
X14681Y110319D01*
X14047Y109493D01*
X13649Y108532D01*
X13579Y108000D01*
X17000D01*
Y111421D01*
D02*
G37*
G36*
X180500Y108921D02*
Y105500D01*
X183921D01*
X183851Y106032D01*
X183453Y106993D01*
X182819Y107819D01*
X181993Y108453D01*
X181032Y108851D01*
X180500Y108921D01*
D02*
G37*
G36*
X203000Y108464D02*
Y105500D01*
X205964D01*
X205910Y105914D01*
X205557Y106765D01*
X204996Y107496D01*
X204265Y108057D01*
X203414Y108410D01*
X203000Y108464D01*
D02*
G37*
G36*
X202000D02*
X201586Y108410D01*
X200735Y108057D01*
X200004Y107496D01*
X199443Y106765D01*
X199090Y105914D01*
X199036Y105500D01*
X202000D01*
Y108464D01*
D02*
G37*
G36*
X179500Y108921D02*
X178968Y108851D01*
X178007Y108453D01*
X177181Y107819D01*
X176547Y106993D01*
X176149Y106032D01*
X176079Y105500D01*
X179500D01*
Y108921D01*
D02*
G37*
G36*
X260551Y114241D02*
X259403Y114090D01*
X258332Y113646D01*
X257413Y112941D01*
X256708Y112022D01*
X256264Y110952D01*
X256113Y109803D01*
X256264Y108654D01*
X256708Y107584D01*
X257413Y106665D01*
X258332Y105960D01*
X259403Y105516D01*
X260551Y105365D01*
X261700Y105516D01*
X262770Y105960D01*
X263689Y106665D01*
X264395Y107584D01*
X264838Y108654D01*
X264989Y109803D01*
X264838Y110952D01*
X264395Y112022D01*
X263689Y112941D01*
X262770Y113646D01*
X261700Y114090D01*
X260551Y114241D01*
D02*
G37*
G36*
X250551D02*
X249403Y114090D01*
X248332Y113646D01*
X247413Y112941D01*
X246708Y112022D01*
X246264Y110952D01*
X246113Y109803D01*
X246264Y108654D01*
X246708Y107584D01*
X247413Y106665D01*
X248332Y105960D01*
X249403Y105516D01*
X250551Y105365D01*
X251700Y105516D01*
X252770Y105960D01*
X253689Y106665D01*
X254395Y107584D01*
X254838Y108654D01*
X254989Y109803D01*
X254838Y110952D01*
X254395Y112022D01*
X253689Y112941D01*
X252770Y113646D01*
X251700Y114090D01*
X250551Y114241D01*
D02*
G37*
G36*
X140964Y107000D02*
X138000D01*
Y104036D01*
X138414Y104090D01*
X139265Y104443D01*
X139996Y105004D01*
X140557Y105735D01*
X140910Y106586D01*
X140964Y107000D01*
D02*
G37*
G36*
X137000D02*
X134036D01*
X134090Y106586D01*
X134443Y105735D01*
X135004Y105004D01*
X135735Y104443D01*
X136586Y104090D01*
X137000Y104036D01*
Y107000D01*
D02*
G37*
G36*
X36421D02*
X33000D01*
Y103579D01*
X33532Y103649D01*
X34493Y104047D01*
X35319Y104681D01*
X35953Y105507D01*
X36351Y106468D01*
X36421Y107000D01*
D02*
G37*
G36*
X21421D02*
X18000D01*
Y103579D01*
X18532Y103649D01*
X19493Y104047D01*
X20319Y104681D01*
X20953Y105507D01*
X21351Y106468D01*
X21421Y107000D01*
D02*
G37*
G36*
X32000D02*
X28579D01*
X28649Y106468D01*
X29047Y105507D01*
X29681Y104681D01*
X30507Y104047D01*
X31468Y103649D01*
X32000Y103579D01*
Y107000D01*
D02*
G37*
G36*
X17000D02*
X13579D01*
X13649Y106468D01*
X14047Y105507D01*
X14681Y104681D01*
X15507Y104047D01*
X16468Y103649D01*
X17000Y103579D01*
Y107000D01*
D02*
G37*
G36*
X205964Y104500D02*
X203000D01*
Y101536D01*
X203414Y101590D01*
X204265Y101943D01*
X204996Y102504D01*
X205557Y103235D01*
X205910Y104086D01*
X205964Y104500D01*
D02*
G37*
G36*
X202000D02*
X199036D01*
X199090Y104086D01*
X199443Y103235D01*
X200004Y102504D01*
X200735Y101943D01*
X201586Y101590D01*
X202000Y101536D01*
Y104500D01*
D02*
G37*
G36*
X150000Y108886D02*
X148994Y108754D01*
X148057Y108365D01*
X147252Y107748D01*
X146635Y106943D01*
X146246Y106006D01*
X146114Y105000D01*
X146246Y103994D01*
X146635Y103057D01*
X147252Y102252D01*
X148057Y101635D01*
X148994Y101246D01*
X150000Y101114D01*
X151006Y101246D01*
X151943Y101635D01*
X152748Y102252D01*
X153365Y103057D01*
X153754Y103994D01*
X153886Y105000D01*
X153754Y106006D01*
X153365Y106943D01*
X152748Y107748D01*
X151943Y108365D01*
X151006Y108754D01*
X150000Y108886D01*
D02*
G37*
G36*
X117500D02*
X116494Y108754D01*
X115557Y108365D01*
X114752Y107748D01*
X114135Y106943D01*
X113746Y106006D01*
X113614Y105000D01*
X113746Y103994D01*
X114135Y103057D01*
X114752Y102252D01*
X115557Y101635D01*
X116494Y101246D01*
X117500Y101114D01*
X118506Y101246D01*
X119443Y101635D01*
X120248Y102252D01*
X120865Y103057D01*
X121254Y103994D01*
X121386Y105000D01*
X121254Y106006D01*
X120865Y106943D01*
X120248Y107748D01*
X119443Y108365D01*
X118506Y108754D01*
X117500Y108886D01*
D02*
G37*
G36*
X87500D02*
X86494Y108754D01*
X85557Y108365D01*
X84752Y107748D01*
X84135Y106943D01*
X83746Y106006D01*
X83614Y105000D01*
X83746Y103994D01*
X84135Y103057D01*
X84752Y102252D01*
X85557Y101635D01*
X86494Y101246D01*
X87500Y101114D01*
X88506Y101246D01*
X89443Y101635D01*
X90248Y102252D01*
X90865Y103057D01*
X91254Y103994D01*
X91386Y105000D01*
X91254Y106006D01*
X90865Y106943D01*
X90248Y107748D01*
X89443Y108365D01*
X88506Y108754D01*
X87500Y108886D01*
D02*
G37*
G36*
X183921Y104500D02*
X180500D01*
Y101079D01*
X181032Y101149D01*
X181993Y101547D01*
X182819Y102181D01*
X183453Y103007D01*
X183851Y103968D01*
X183921Y104500D01*
D02*
G37*
G36*
X179500D02*
X176079D01*
X176149Y103968D01*
X176547Y103007D01*
X177181Y102181D01*
X178007Y101547D01*
X178968Y101149D01*
X179500Y101079D01*
Y104500D01*
D02*
G37*
G36*
X260551Y104241D02*
X259403Y104090D01*
X258332Y103647D01*
X257413Y102941D01*
X256708Y102022D01*
X256264Y100952D01*
X256113Y99803D01*
X256264Y98655D01*
X256708Y97584D01*
X257413Y96665D01*
X258332Y95960D01*
X259403Y95516D01*
X260551Y95365D01*
X261700Y95516D01*
X262770Y95960D01*
X263689Y96665D01*
X264395Y97584D01*
X264838Y98655D01*
X264989Y99803D01*
X264838Y100952D01*
X264395Y102022D01*
X263689Y102941D01*
X262770Y103647D01*
X261700Y104090D01*
X260551Y104241D01*
D02*
G37*
G36*
X250551D02*
X249403Y104090D01*
X248332Y103647D01*
X247413Y102941D01*
X246708Y102022D01*
X246264Y100952D01*
X246113Y99803D01*
X246264Y98655D01*
X246708Y97584D01*
X247413Y96665D01*
X248332Y95960D01*
X249403Y95516D01*
X250551Y95365D01*
X251700Y95516D01*
X252770Y95960D01*
X253689Y96665D01*
X254395Y97584D01*
X254838Y98655D01*
X254989Y99803D01*
X254838Y100952D01*
X254395Y102022D01*
X253689Y102941D01*
X252770Y103647D01*
X251700Y104090D01*
X250551Y104241D01*
D02*
G37*
G36*
X32500Y101386D02*
X31494Y101254D01*
X30557Y100865D01*
X29752Y100248D01*
X29135Y99443D01*
X28746Y98506D01*
X28614Y97500D01*
X28746Y96494D01*
X29135Y95557D01*
X29752Y94752D01*
X30557Y94135D01*
X31494Y93746D01*
X32500Y93614D01*
X33506Y93746D01*
X34443Y94135D01*
X35248Y94752D01*
X35865Y95557D01*
X36254Y96494D01*
X36386Y97500D01*
X36254Y98506D01*
X35865Y99443D01*
X35248Y100248D01*
X34443Y100865D01*
X33506Y101254D01*
X32500Y101386D01*
D02*
G37*
G36*
X17500D02*
X16494Y101254D01*
X15557Y100865D01*
X14752Y100248D01*
X14135Y99443D01*
X13746Y98506D01*
X13614Y97500D01*
X13746Y96494D01*
X14135Y95557D01*
X14752Y94752D01*
X15557Y94135D01*
X16494Y93746D01*
X17500Y93614D01*
X18506Y93746D01*
X19443Y94135D01*
X20248Y94752D01*
X20865Y95557D01*
X21254Y96494D01*
X21386Y97500D01*
X21254Y98506D01*
X20865Y99443D01*
X20248Y100248D01*
X19443Y100865D01*
X18506Y101254D01*
X17500Y101386D01*
D02*
G37*
G36*
X225000Y98886D02*
X223994Y98754D01*
X223057Y98365D01*
X222252Y97748D01*
X221635Y96943D01*
X221246Y96006D01*
X221114Y95000D01*
X221246Y93994D01*
X221635Y93057D01*
X222252Y92252D01*
X223057Y91635D01*
X223994Y91246D01*
X225000Y91114D01*
X226006Y91246D01*
X226943Y91635D01*
X227748Y92252D01*
X228365Y93057D01*
X228754Y93994D01*
X228886Y95000D01*
X228754Y96006D01*
X228365Y96943D01*
X227748Y97748D01*
X226943Y98365D01*
X226006Y98754D01*
X225000Y98886D01*
D02*
G37*
G36*
X180000D02*
X178994Y98754D01*
X178057Y98365D01*
X177252Y97748D01*
X176635Y96943D01*
X176246Y96006D01*
X176114Y95000D01*
X176246Y93994D01*
X176635Y93057D01*
X177252Y92252D01*
X178057Y91635D01*
X178994Y91246D01*
X180000Y91114D01*
X181006Y91246D01*
X181943Y91635D01*
X182748Y92252D01*
X183365Y93057D01*
X183754Y93994D01*
X183886Y95000D01*
X183754Y96006D01*
X183365Y96943D01*
X182748Y97748D01*
X181943Y98365D01*
X181006Y98754D01*
X180000Y98886D01*
D02*
G37*
G36*
X150000D02*
X148994Y98754D01*
X148057Y98365D01*
X147252Y97748D01*
X146635Y96943D01*
X146246Y96006D01*
X146114Y95000D01*
X146246Y93994D01*
X146635Y93057D01*
X147252Y92252D01*
X148057Y91635D01*
X148994Y91246D01*
X150000Y91114D01*
X151006Y91246D01*
X151943Y91635D01*
X152748Y92252D01*
X153365Y93057D01*
X153754Y93994D01*
X153886Y95000D01*
X153754Y96006D01*
X153365Y96943D01*
X152748Y97748D01*
X151943Y98365D01*
X151006Y98754D01*
X150000Y98886D01*
D02*
G37*
G36*
X117500D02*
X116494Y98754D01*
X115557Y98365D01*
X114752Y97748D01*
X114135Y96943D01*
X113746Y96006D01*
X113614Y95000D01*
X113746Y93994D01*
X114135Y93057D01*
X114752Y92252D01*
X115557Y91635D01*
X116494Y91246D01*
X117500Y91114D01*
X118506Y91246D01*
X119443Y91635D01*
X120248Y92252D01*
X120865Y93057D01*
X121254Y93994D01*
X121386Y95000D01*
X121254Y96006D01*
X120865Y96943D01*
X120248Y97748D01*
X119443Y98365D01*
X118506Y98754D01*
X117500Y98886D01*
D02*
G37*
G36*
X87500D02*
X86494Y98754D01*
X85557Y98365D01*
X84752Y97748D01*
X84135Y96943D01*
X83746Y96006D01*
X83614Y95000D01*
X83746Y93994D01*
X84135Y93057D01*
X84752Y92252D01*
X85557Y91635D01*
X86494Y91246D01*
X87500Y91114D01*
X88506Y91246D01*
X89443Y91635D01*
X90248Y92252D01*
X90865Y93057D01*
X91254Y93994D01*
X91386Y95000D01*
X91254Y96006D01*
X90865Y96943D01*
X90248Y97748D01*
X89443Y98365D01*
X88506Y98754D01*
X87500Y98886D01*
D02*
G37*
G36*
X183853Y88853D02*
X176147D01*
Y81147D01*
X183853D01*
Y88853D01*
D02*
G37*
G36*
X121353D02*
X113647D01*
Y81147D01*
X121353D01*
Y88853D01*
D02*
G37*
G36*
X150000Y88886D02*
X148994Y88754D01*
X148057Y88365D01*
X147252Y87748D01*
X146635Y86943D01*
X146246Y86006D01*
X146114Y85000D01*
X146246Y83994D01*
X146635Y83057D01*
X147252Y82252D01*
X148057Y81635D01*
X148994Y81246D01*
X150000Y81114D01*
X151006Y81246D01*
X151943Y81635D01*
X152748Y82252D01*
X153365Y83057D01*
X153754Y83994D01*
X153886Y85000D01*
X153754Y86006D01*
X153365Y86943D01*
X152748Y87748D01*
X151943Y88365D01*
X151006Y88754D01*
X150000Y88886D01*
D02*
G37*
G36*
X87500D02*
X86494Y88754D01*
X85557Y88365D01*
X84752Y87748D01*
X84135Y86943D01*
X83746Y86006D01*
X83614Y85000D01*
X83746Y83994D01*
X84135Y83057D01*
X84752Y82252D01*
X85557Y81635D01*
X86494Y81246D01*
X87500Y81114D01*
X88506Y81246D01*
X89443Y81635D01*
X90248Y82252D01*
X90865Y83057D01*
X91254Y83994D01*
X91386Y85000D01*
X91254Y86006D01*
X90865Y86943D01*
X90248Y87748D01*
X89443Y88365D01*
X88506Y88754D01*
X87500Y88886D01*
D02*
G37*
G36*
X140500Y83464D02*
Y80500D01*
X143464D01*
X143410Y80914D01*
X143057Y81765D01*
X142496Y82496D01*
X141765Y83057D01*
X140914Y83410D01*
X140500Y83464D01*
D02*
G37*
G36*
X139500D02*
X139086Y83410D01*
X138235Y83057D01*
X137504Y82496D01*
X136943Y81765D01*
X136590Y80914D01*
X136536Y80500D01*
X139500D01*
Y83464D01*
D02*
G37*
G36*
X78000D02*
Y80500D01*
X80964D01*
X80910Y80914D01*
X80557Y81765D01*
X79996Y82496D01*
X79265Y83057D01*
X78414Y83410D01*
X78000Y83464D01*
D02*
G37*
G36*
X77000D02*
X76586Y83410D01*
X75735Y83057D01*
X75004Y82496D01*
X74443Y81765D01*
X74090Y80914D01*
X74036Y80500D01*
X77000D01*
Y83464D01*
D02*
G37*
G36*
X103000Y80964D02*
Y78000D01*
X105964D01*
X105910Y78414D01*
X105557Y79265D01*
X104996Y79996D01*
X104265Y80557D01*
X103414Y80910D01*
X103000Y80964D01*
D02*
G37*
G36*
X102000D02*
X101586Y80910D01*
X100735Y80557D01*
X100004Y79996D01*
X99443Y79265D01*
X99090Y78414D01*
X99036Y78000D01*
X102000D01*
Y80964D01*
D02*
G37*
G36*
X143464Y79500D02*
X140500D01*
Y76536D01*
X140914Y76590D01*
X141765Y76943D01*
X142496Y77504D01*
X143057Y78235D01*
X143410Y79086D01*
X143464Y79500D01*
D02*
G37*
G36*
X139500D02*
X136536D01*
X136590Y79086D01*
X136943Y78235D01*
X137504Y77504D01*
X138235Y76943D01*
X139086Y76590D01*
X139500Y76536D01*
Y79500D01*
D02*
G37*
G36*
X80964D02*
X78000D01*
Y76536D01*
X78414Y76590D01*
X79265Y76943D01*
X79996Y77504D01*
X80557Y78235D01*
X80910Y79086D01*
X80964Y79500D01*
D02*
G37*
G36*
X77000D02*
X74036D01*
X74090Y79086D01*
X74443Y78235D01*
X75004Y77504D01*
X75735Y76943D01*
X76586Y76590D01*
X77000Y76536D01*
Y79500D01*
D02*
G37*
G36*
X105964Y77000D02*
X103000D01*
Y74036D01*
X103414Y74090D01*
X104265Y74443D01*
X104996Y75004D01*
X105557Y75735D01*
X105910Y76586D01*
X105964Y77000D01*
D02*
G37*
G36*
X102000D02*
X99036D01*
X99090Y76586D01*
X99443Y75735D01*
X100004Y75004D01*
X100735Y74443D01*
X101586Y74090D01*
X102000Y74036D01*
Y77000D01*
D02*
G37*
G36*
X53000Y70964D02*
Y68000D01*
X55964D01*
X55910Y68414D01*
X55557Y69265D01*
X54996Y69996D01*
X54265Y70557D01*
X53414Y70910D01*
X53000Y70964D01*
D02*
G37*
G36*
X52000D02*
X51586Y70910D01*
X50735Y70557D01*
X50004Y69996D01*
X49443Y69265D01*
X49090Y68414D01*
X49036Y68000D01*
X52000D01*
Y70964D01*
D02*
G37*
G36*
X115500Y68464D02*
Y65500D01*
X118464D01*
X118410Y65914D01*
X118057Y66765D01*
X117496Y67496D01*
X116765Y68057D01*
X115914Y68410D01*
X115500Y68464D01*
D02*
G37*
G36*
X114500D02*
X114086Y68410D01*
X113235Y68057D01*
X112504Y67496D01*
X111943Y66765D01*
X111590Y65914D01*
X111536Y65500D01*
X114500D01*
Y68464D01*
D02*
G37*
G36*
X55964Y67000D02*
X53000D01*
Y64036D01*
X53414Y64090D01*
X54265Y64443D01*
X54996Y65004D01*
X55557Y65735D01*
X55910Y66586D01*
X55964Y67000D01*
D02*
G37*
G36*
X52000D02*
X49036D01*
X49090Y66586D01*
X49443Y65735D01*
X50004Y65004D01*
X50735Y64443D01*
X51586Y64090D01*
X52000Y64036D01*
Y67000D01*
D02*
G37*
G36*
X118464Y64500D02*
X115500D01*
Y61536D01*
X115914Y61590D01*
X116765Y61943D01*
X117496Y62504D01*
X118057Y63235D01*
X118410Y64086D01*
X118464Y64500D01*
D02*
G37*
G36*
X114500D02*
X111536D01*
X111590Y64086D01*
X111943Y63235D01*
X112504Y62504D01*
X113235Y61943D01*
X114086Y61590D01*
X114500Y61536D01*
Y64500D01*
D02*
G37*
G36*
X68000Y53464D02*
Y50500D01*
X70964D01*
X70910Y50914D01*
X70557Y51765D01*
X69996Y52496D01*
X69265Y53057D01*
X68414Y53410D01*
X68000Y53464D01*
D02*
G37*
G36*
X67000D02*
X66586Y53410D01*
X65735Y53057D01*
X65004Y52496D01*
X64443Y51765D01*
X64090Y50914D01*
X64036Y50500D01*
X67000D01*
Y53464D01*
D02*
G37*
G36*
X70964Y49500D02*
X68000D01*
Y46536D01*
X68414Y46590D01*
X69265Y46943D01*
X69996Y47504D01*
X70557Y48235D01*
X70910Y49086D01*
X70964Y49500D01*
D02*
G37*
G36*
X67000D02*
X64036D01*
X64090Y49086D01*
X64443Y48235D01*
X65004Y47504D01*
X65735Y46943D01*
X66586Y46590D01*
X67000Y46536D01*
Y49500D01*
D02*
G37*
G36*
X30500Y48464D02*
Y45500D01*
X33464D01*
X33410Y45914D01*
X33057Y46765D01*
X32496Y47496D01*
X31765Y48057D01*
X30914Y48410D01*
X30500Y48464D01*
D02*
G37*
G36*
X29500D02*
X29086Y48410D01*
X28235Y48057D01*
X27504Y47496D01*
X26943Y46765D01*
X26590Y45914D01*
X26536Y45500D01*
X29500D01*
Y48464D01*
D02*
G37*
G36*
X33464Y44500D02*
X30500D01*
Y41536D01*
X30914Y41590D01*
X31765Y41943D01*
X32496Y42504D01*
X33057Y43235D01*
X33410Y44086D01*
X33464Y44500D01*
D02*
G37*
G36*
X29500D02*
X26536D01*
X26590Y44086D01*
X26943Y43235D01*
X27504Y42504D01*
X28235Y41943D01*
X29086Y41590D01*
X29500Y41536D01*
Y44500D01*
D02*
G37*
G36*
X223000Y43464D02*
Y40500D01*
X225964D01*
X225910Y40914D01*
X225557Y41765D01*
X224996Y42496D01*
X224265Y43057D01*
X223414Y43410D01*
X223000Y43464D01*
D02*
G37*
G36*
X222000D02*
X221586Y43410D01*
X220735Y43057D01*
X220004Y42496D01*
X219443Y41765D01*
X219090Y40914D01*
X219036Y40500D01*
X222000D01*
Y43464D01*
D02*
G37*
G36*
X55000Y53429D02*
X54112Y53312D01*
X53285Y52970D01*
X52575Y52425D01*
X52030Y51715D01*
X51688Y50888D01*
X51571Y50000D01*
X51688Y49112D01*
X52030Y48285D01*
X52575Y47575D01*
X53285Y47030D01*
X53573Y46911D01*
Y38739D01*
X53073Y38354D01*
X52500Y38429D01*
X51612Y38313D01*
X50785Y37970D01*
X50075Y37425D01*
X49530Y36715D01*
X49187Y35888D01*
X49071Y35000D01*
X49187Y34112D01*
X49530Y33285D01*
X50075Y32575D01*
X50785Y32030D01*
X51612Y31688D01*
X52500Y31571D01*
X53388Y31688D01*
X54215Y32030D01*
X54925Y32575D01*
X55470Y33285D01*
X55813Y34112D01*
X55929Y35000D01*
X55813Y35888D01*
X55694Y36175D01*
X56009Y36491D01*
X56009Y36491D01*
X56319Y36954D01*
X56427Y37500D01*
Y46911D01*
X56715Y47030D01*
X57425Y47575D01*
X57970Y48285D01*
X58312Y49112D01*
X58429Y50000D01*
X58312Y50888D01*
X57970Y51715D01*
X57425Y52425D01*
X56715Y52970D01*
X55888Y53312D01*
X55000Y53429D01*
D02*
G37*
G36*
X225964Y39500D02*
X223000D01*
Y36536D01*
X223414Y36590D01*
X224265Y36943D01*
X224996Y37504D01*
X225557Y38235D01*
X225910Y39086D01*
X225964Y39500D01*
D02*
G37*
G36*
X222000D02*
X219036D01*
X219090Y39086D01*
X219443Y38235D01*
X220004Y37504D01*
X220735Y36943D01*
X221586Y36590D01*
X222000Y36536D01*
Y39500D01*
D02*
G37*
G36*
X260000Y37234D02*
X258589Y37095D01*
X257232Y36683D01*
X255981Y36015D01*
X254885Y35115D01*
X253985Y34019D01*
X253317Y32768D01*
X253034Y31838D01*
X252504Y31812D01*
X252429Y31993D01*
X251796Y32819D01*
X250970Y33453D01*
X250008Y33851D01*
X249476Y33921D01*
Y30000D01*
Y26079D01*
X250008Y26149D01*
X250970Y26547D01*
X251796Y27181D01*
X252429Y28007D01*
X252504Y28188D01*
X253034Y28162D01*
X253317Y27232D01*
X253985Y25981D01*
X254885Y24885D01*
X255981Y23985D01*
X257232Y23317D01*
X258589Y22905D01*
X260000Y22766D01*
X261411Y22905D01*
X262768Y23317D01*
X264019Y23985D01*
X265115Y24885D01*
X266015Y25981D01*
X266683Y27232D01*
X267095Y28589D01*
X267234Y30000D01*
X267095Y31411D01*
X266683Y32768D01*
X266015Y34019D01*
X265115Y35115D01*
X264019Y36015D01*
X262768Y36683D01*
X261411Y37095D01*
X260000Y37234D01*
D02*
G37*
G36*
X248476Y33921D02*
X247944Y33851D01*
X246983Y33453D01*
X246157Y32819D01*
X245524Y31993D01*
X245125Y31032D01*
X245055Y30500D01*
X248476D01*
Y33921D01*
D02*
G37*
G36*
X224876Y33853D02*
X217171D01*
Y26147D01*
X224876D01*
Y33853D01*
D02*
G37*
G36*
X169876D02*
X162171D01*
Y26147D01*
X169876D01*
Y33853D01*
D02*
G37*
G36*
X193976Y33886D02*
X192971Y33754D01*
X192033Y33365D01*
X191229Y32748D01*
X190611Y31943D01*
X190223Y31006D01*
X190090Y30000D01*
X190223Y28994D01*
X190611Y28057D01*
X191229Y27252D01*
X192033Y26635D01*
X192971Y26246D01*
X193976Y26114D01*
X194982Y26246D01*
X195919Y26635D01*
X196724Y27252D01*
X197342Y28057D01*
X197730Y28994D01*
X197862Y30000D01*
X197730Y31006D01*
X197342Y31943D01*
X196724Y32748D01*
X195919Y33365D01*
X194982Y33754D01*
X193976Y33886D01*
D02*
G37*
G36*
X248476Y29500D02*
X245055D01*
X245125Y28968D01*
X245524Y28007D01*
X246157Y27181D01*
X246983Y26547D01*
X247944Y26149D01*
X248476Y26079D01*
Y29500D01*
D02*
G37*
G36*
X170500Y13969D02*
Y10500D01*
X173969D01*
X173897Y11044D01*
X173494Y12017D01*
X172853Y12853D01*
X172017Y13494D01*
X171044Y13897D01*
X170500Y13969D01*
D02*
G37*
G36*
X160500D02*
Y10500D01*
X163969D01*
X163897Y11044D01*
X163494Y12017D01*
X162853Y12853D01*
X162017Y13494D01*
X161044Y13897D01*
X160500Y13969D01*
D02*
G37*
G36*
X169500D02*
X168956Y13897D01*
X167983Y13494D01*
X167147Y12853D01*
X166506Y12017D01*
X166103Y11044D01*
X166031Y10500D01*
X169500D01*
Y13969D01*
D02*
G37*
G36*
X159500D02*
X158956Y13897D01*
X157983Y13494D01*
X157147Y12853D01*
X156506Y12017D01*
X156103Y11044D01*
X156031Y10500D01*
X159500D01*
Y13969D01*
D02*
G37*
G36*
X203900Y13900D02*
X196100D01*
Y6100D01*
X203900D01*
Y13900D01*
D02*
G37*
G36*
X183900D02*
X176100D01*
Y6100D01*
X183900D01*
Y13900D01*
D02*
G37*
G36*
X250000Y13934D02*
X248982Y13800D01*
X248033Y13407D01*
X247218Y12781D01*
X246593Y11967D01*
X246200Y11018D01*
X246066Y10000D01*
X246200Y8982D01*
X246593Y8033D01*
X247218Y7219D01*
X248033Y6593D01*
X248982Y6200D01*
X250000Y6066D01*
X251018Y6200D01*
X251967Y6593D01*
X252782Y7219D01*
X253407Y8033D01*
X253800Y8982D01*
X253934Y10000D01*
X253800Y11018D01*
X253407Y11967D01*
X252782Y12781D01*
X251967Y13407D01*
X251018Y13800D01*
X250000Y13934D01*
D02*
G37*
G36*
X240000D02*
X238982Y13800D01*
X238033Y13407D01*
X237218Y12781D01*
X236593Y11967D01*
X236200Y11018D01*
X236066Y10000D01*
X236200Y8982D01*
X236593Y8033D01*
X237218Y7219D01*
X238033Y6593D01*
X238982Y6200D01*
X240000Y6066D01*
X241018Y6200D01*
X241967Y6593D01*
X242781Y7219D01*
X243407Y8033D01*
X243800Y8982D01*
X243934Y10000D01*
X243800Y11018D01*
X243407Y11967D01*
X242781Y12781D01*
X241967Y13407D01*
X241018Y13800D01*
X240000Y13934D01*
D02*
G37*
G36*
X230000D02*
X228982Y13800D01*
X228033Y13407D01*
X227219Y12781D01*
X226593Y11967D01*
X226200Y11018D01*
X226066Y10000D01*
X226200Y8982D01*
X226593Y8033D01*
X227219Y7219D01*
X228033Y6593D01*
X228982Y6200D01*
X230000Y6066D01*
X231018Y6200D01*
X231967Y6593D01*
X232782Y7219D01*
X233407Y8033D01*
X233800Y8982D01*
X233934Y10000D01*
X233800Y11018D01*
X233407Y11967D01*
X232782Y12781D01*
X231967Y13407D01*
X231018Y13800D01*
X230000Y13934D01*
D02*
G37*
G36*
X220000D02*
X218982Y13800D01*
X218033Y13407D01*
X217218Y12781D01*
X216593Y11967D01*
X216200Y11018D01*
X216066Y10000D01*
X216200Y8982D01*
X216593Y8033D01*
X217218Y7219D01*
X218033Y6593D01*
X218982Y6200D01*
X220000Y6066D01*
X221018Y6200D01*
X221967Y6593D01*
X222781Y7219D01*
X223407Y8033D01*
X223800Y8982D01*
X223934Y10000D01*
X223800Y11018D01*
X223407Y11967D01*
X222781Y12781D01*
X221967Y13407D01*
X221018Y13800D01*
X220000Y13934D01*
D02*
G37*
G36*
X210000D02*
X208982Y13800D01*
X208033Y13407D01*
X207219Y12781D01*
X206593Y11967D01*
X206200Y11018D01*
X206066Y10000D01*
X206200Y8982D01*
X206593Y8033D01*
X207219Y7219D01*
X208033Y6593D01*
X208982Y6200D01*
X210000Y6066D01*
X211018Y6200D01*
X211967Y6593D01*
X212782Y7219D01*
X213407Y8033D01*
X213800Y8982D01*
X213934Y10000D01*
X213800Y11018D01*
X213407Y11967D01*
X212782Y12781D01*
X211967Y13407D01*
X211018Y13800D01*
X210000Y13934D01*
D02*
G37*
G36*
X150000D02*
X148982Y13800D01*
X148033Y13407D01*
X147219Y12781D01*
X146593Y11967D01*
X146200Y11018D01*
X146066Y10000D01*
X146200Y8982D01*
X146593Y8033D01*
X147219Y7219D01*
X148033Y6593D01*
X148982Y6200D01*
X150000Y6066D01*
X151018Y6200D01*
X151967Y6593D01*
X152781Y7219D01*
X153407Y8033D01*
X153800Y8982D01*
X153934Y10000D01*
X153800Y11018D01*
X153407Y11967D01*
X152781Y12781D01*
X151967Y13407D01*
X151018Y13800D01*
X150000Y13934D01*
D02*
G37*
G36*
X140000D02*
X138982Y13800D01*
X138033Y13407D01*
X137218Y12781D01*
X136593Y11967D01*
X136200Y11018D01*
X136066Y10000D01*
X136200Y8982D01*
X136593Y8033D01*
X137218Y7219D01*
X138033Y6593D01*
X138982Y6200D01*
X140000Y6066D01*
X141018Y6200D01*
X141967Y6593D01*
X142781Y7219D01*
X143407Y8033D01*
X143800Y8982D01*
X143934Y10000D01*
X143800Y11018D01*
X143407Y11967D01*
X142781Y12781D01*
X141967Y13407D01*
X141018Y13800D01*
X140000Y13934D01*
D02*
G37*
G36*
X130000D02*
X128982Y13800D01*
X128033Y13407D01*
X127218Y12781D01*
X126593Y11967D01*
X126200Y11018D01*
X126066Y10000D01*
X126200Y8982D01*
X126593Y8033D01*
X127218Y7219D01*
X128033Y6593D01*
X128982Y6200D01*
X130000Y6066D01*
X131018Y6200D01*
X131967Y6593D01*
X132782Y7219D01*
X133407Y8033D01*
X133800Y8982D01*
X133934Y10000D01*
X133800Y11018D01*
X133407Y11967D01*
X132782Y12781D01*
X131967Y13407D01*
X131018Y13800D01*
X130000Y13934D01*
D02*
G37*
G36*
X120000D02*
X118982Y13800D01*
X118033Y13407D01*
X117218Y12781D01*
X116593Y11967D01*
X116200Y11018D01*
X116066Y10000D01*
X116200Y8982D01*
X116593Y8033D01*
X117218Y7219D01*
X118033Y6593D01*
X118982Y6200D01*
X120000Y6066D01*
X121018Y6200D01*
X121967Y6593D01*
X122782Y7219D01*
X123407Y8033D01*
X123800Y8982D01*
X123934Y10000D01*
X123800Y11018D01*
X123407Y11967D01*
X122782Y12781D01*
X121967Y13407D01*
X121018Y13800D01*
X120000Y13934D01*
D02*
G37*
G36*
X110000D02*
X108982Y13800D01*
X108033Y13407D01*
X107219Y12781D01*
X106593Y11967D01*
X106200Y11018D01*
X106066Y10000D01*
X106200Y8982D01*
X106593Y8033D01*
X107219Y7219D01*
X108033Y6593D01*
X108982Y6200D01*
X110000Y6066D01*
X111018Y6200D01*
X111967Y6593D01*
X112782Y7219D01*
X113407Y8033D01*
X113800Y8982D01*
X113934Y10000D01*
X113800Y11018D01*
X113407Y11967D01*
X112782Y12781D01*
X111967Y13407D01*
X111018Y13800D01*
X110000Y13934D01*
D02*
G37*
G36*
X173969Y9500D02*
X170500D01*
Y6031D01*
X171044Y6103D01*
X172017Y6506D01*
X172853Y7147D01*
X173494Y7983D01*
X173897Y8956D01*
X173969Y9500D01*
D02*
G37*
G36*
X163969D02*
X160500D01*
Y6031D01*
X161044Y6103D01*
X162017Y6506D01*
X162853Y7147D01*
X163494Y7983D01*
X163897Y8956D01*
X163969Y9500D01*
D02*
G37*
G36*
X169500D02*
X166031D01*
X166103Y8956D01*
X166506Y7983D01*
X167147Y7147D01*
X167983Y6506D01*
X168956Y6103D01*
X169500Y6031D01*
Y9500D01*
D02*
G37*
G36*
X159500D02*
X156031D01*
X156103Y8956D01*
X156506Y7983D01*
X157147Y7147D01*
X157983Y6506D01*
X158956Y6103D01*
X159500Y6031D01*
Y9500D01*
D02*
G37*
G36*
X55000Y17234D02*
X53589Y17095D01*
X52232Y16683D01*
X50981Y16015D01*
X49885Y15115D01*
X48985Y14019D01*
X48317Y12768D01*
X47905Y11411D01*
X47766Y10000D01*
X47905Y8589D01*
X48317Y7232D01*
X48985Y5981D01*
X49885Y4885D01*
X50981Y3985D01*
X52232Y3317D01*
X53589Y2905D01*
X55000Y2766D01*
X56411Y2905D01*
X57768Y3317D01*
X59019Y3985D01*
X60115Y4885D01*
X61015Y5981D01*
X61683Y7232D01*
X62095Y8589D01*
X62234Y10000D01*
X62095Y11411D01*
X61683Y12768D01*
X61015Y14019D01*
X60115Y15115D01*
X59019Y16015D01*
X57768Y16683D01*
X56411Y17095D01*
X55000Y17234D01*
D02*
G37*
%LPD*%
D13*
X52500Y35000D02*
X55000Y37500D01*
Y50000D01*
D14*
X266299Y140000D02*
G03*
X266299Y140000I-6299J0D01*
G01*
X61299Y10000D02*
G03*
X61299Y10000I-6299J0D01*
G01*
X266299Y30000D02*
G03*
X266299Y30000I-6299J0D01*
G01*
X66299Y200000D02*
G03*
X66299Y200000I-6299J0D01*
G01*
X0Y210000D02*
X250000D01*
X0Y0D02*
X260000D01*
X0D02*
Y210000D01*
X250000D02*
X260000Y200000D01*
Y160000D02*
Y200000D01*
Y160000D02*
X270000Y150000D01*
Y15000D02*
Y150000D01*
X260000Y5000D02*
X270000Y15000D01*
X260000Y0D02*
Y5000D01*
D16*
X171000Y98001D02*
Y101334D01*
X170334Y102000D01*
X169001D01*
X168334Y101334D01*
Y98001D01*
X167001Y98668D02*
X166335Y98001D01*
X165002D01*
X164336Y98668D01*
Y99334D01*
X165002Y100001D01*
X165668D01*
X165002D01*
X164336Y100667D01*
Y101334D01*
X165002Y102000D01*
X166335D01*
X167001Y101334D01*
X108500Y98001D02*
Y101334D01*
X107834Y102000D01*
X106501D01*
X105834Y101334D01*
Y98001D01*
X101836Y102000D02*
X104501D01*
X101836Y99334D01*
Y98668D01*
X102502Y98001D01*
X103835D01*
X104501Y98668D01*
D41*
X225000Y115000D02*
D03*
X32500Y117500D02*
D03*
X17500D02*
D03*
D42*
X225000Y95000D02*
D03*
X32500Y97500D02*
D03*
Y107500D02*
D03*
X17500Y97500D02*
D03*
Y107500D02*
D03*
X193976Y30000D02*
D03*
X248976D02*
D03*
X180000Y95000D02*
D03*
Y105000D02*
D03*
Y115000D02*
D03*
X150000Y85000D02*
D03*
Y95000D02*
D03*
Y105000D02*
D03*
Y115000D02*
D03*
X117500Y95000D02*
D03*
Y105000D02*
D03*
Y115000D02*
D03*
X87500Y85000D02*
D03*
Y95000D02*
D03*
Y105000D02*
D03*
Y115000D02*
D03*
D43*
X166024Y30000D02*
D03*
X221024D02*
D03*
X180000Y85000D02*
D03*
X117500D02*
D03*
D44*
X260000Y30000D02*
D03*
Y140000D02*
D03*
X55000Y10000D02*
D03*
X60000Y200000D02*
D03*
D45*
X200000Y10000D02*
D03*
X164000Y200000D02*
D03*
X250000D02*
D03*
X180000Y10000D02*
D03*
D46*
X210000D02*
D03*
X220000D02*
D03*
X230000D02*
D03*
X240000D02*
D03*
X250000D02*
D03*
X154000Y200000D02*
D03*
X144000D02*
D03*
X134000D02*
D03*
X124000D02*
D03*
X114000D02*
D03*
X104000D02*
D03*
X94000D02*
D03*
X84000D02*
D03*
X74000D02*
D03*
X220000D02*
D03*
X210000D02*
D03*
X200000D02*
D03*
X190000D02*
D03*
X180000D02*
D03*
X240000D02*
D03*
X230000D02*
D03*
X150000Y10000D02*
D03*
X140000D02*
D03*
X130000D02*
D03*
X120000D02*
D03*
X110000D02*
D03*
X170000D02*
D03*
X160000D02*
D03*
D47*
X250551Y119803D02*
D03*
X260551D02*
D03*
X250551Y109803D02*
D03*
X260551D02*
D03*
X250551Y99803D02*
D03*
X260551D02*
D03*
D48*
X115000Y65000D02*
D03*
X102500Y77500D02*
D03*
X222500Y40000D02*
D03*
X202500Y105000D02*
D03*
X137500Y107500D02*
D03*
X52500Y67500D02*
D03*
X67500Y50000D02*
D03*
X30000Y45000D02*
D03*
X52500Y35000D02*
D03*
X55000Y50000D02*
D03*
X140000Y80000D02*
D03*
X77500D02*
D03*
X97500Y167500D02*
D03*
X77500Y162500D02*
D03*
M02*
