G04*
G04 #@! TF.GenerationSoftware,Altium Limited,Altium Designer,20.0.12 (288)*
G04*
G04 Layer_Physical_Order=1*
G04 Layer_Color=255*
%FSLAX25Y25*%
%MOIN*%
G70*
G01*
G75*
%ADD13C,0.01000*%
%ADD14C,0.00500*%
%ADD16C,0.00700*%
%ADD17R,0.03347X0.05315*%
%ADD18R,0.05315X0.03740*%
%ADD19R,0.03740X0.05315*%
%ADD20R,0.01181X0.00984*%
%ADD21R,0.01968X0.00984*%
%ADD22R,0.06496X0.04213*%
%ADD23R,0.06496X0.07008*%
%ADD24R,0.02756X0.00984*%
%ADD25R,0.05118X0.02362*%
%ADD41R,0.05906X0.05906*%
%ADD42C,0.05906*%
%ADD43R,0.05906X0.05906*%
%ADD44C,0.12598*%
%ADD45R,0.06000X0.06000*%
%ADD46C,0.06000*%
%ADD47C,0.07000*%
%ADD48C,0.05000*%
D13*
X27500Y135000D02*
X97500D01*
X102500Y130000D01*
X17500Y122858D02*
Y135000D01*
Y117500D02*
Y122858D01*
X21633Y126991D01*
Y127975D01*
X32500Y117500D02*
Y122619D01*
X28129Y126991D02*
X32500Y122619D01*
X28129Y126991D02*
Y127975D01*
X25000Y105000D02*
Y132500D01*
X27500Y135000D01*
X39547Y109833D02*
X59833D01*
X180000Y95000D02*
X225000D01*
X175000D02*
X180000D01*
X102500Y70000D02*
Y77500D01*
X120000Y60000D02*
Y60787D01*
X115787Y65000D02*
X120000Y60787D01*
X115000Y65000D02*
X115787D01*
X110000Y87500D02*
X117500Y95000D01*
X108996Y70000D02*
X110000Y71004D01*
Y87500D01*
X108996Y60000D02*
Y70000D01*
X87500Y105000D02*
X95000Y97500D01*
Y68484D02*
Y97500D01*
X102500Y60000D02*
Y60984D01*
X95000Y68484D02*
X102500Y60984D01*
Y60000D02*
X102581Y59919D01*
Y54919D02*
Y59919D01*
X107500Y50000D02*
X200748D01*
X102581Y54919D02*
X107500Y50000D01*
X62661Y109833D02*
X120589Y109326D01*
X122711Y107204D01*
Y105329D02*
Y107204D01*
Y105329D02*
X134553Y93487D01*
X139466D01*
X140000Y92953D01*
X117500Y105000D02*
X125906Y96595D01*
Y60000D02*
Y96595D01*
X59833Y109833D02*
X62661D01*
X125906Y60000D02*
X135000D01*
X64213Y65000D02*
X74338D01*
X57500Y58287D02*
X64213Y65000D01*
X87500Y17500D02*
Y55748D01*
X80748Y62500D02*
X87500Y55748D01*
X215453Y40000D02*
X222500D01*
X209774Y30000D02*
X221024D01*
X209547Y29774D02*
X209774Y30000D01*
X209547Y29774D02*
Y40000D01*
Y19547D02*
Y29774D01*
X193976Y30000D02*
X194203Y29774D01*
X209547D01*
X200000Y10000D02*
X209547Y19547D01*
X208248Y41299D02*
Y50000D01*
Y41299D02*
X209547Y40000D01*
X150000Y10000D02*
X150524Y10524D01*
Y14500D01*
X166024Y30000D01*
X49970Y45987D02*
X54066Y41890D01*
X49262Y45987D02*
X49970D01*
X36988Y46063D02*
X41831D01*
X42500Y45394D01*
X35000Y50000D02*
X36988D01*
X34150Y49150D02*
X35000Y50000D01*
X34150Y48031D02*
Y49150D01*
X192500Y107047D02*
X199370D01*
X201418Y105000D01*
X202500D01*
X127500Y107047D02*
X127953Y107500D01*
X137500D01*
X45453Y65000D02*
X49343D01*
X51843Y67500D01*
X52500D01*
X62953Y40000D02*
Y45453D01*
X67500Y50000D01*
X63406Y56713D02*
Y57500D01*
Y56713D02*
X66735Y53383D01*
Y50765D02*
Y53383D01*
Y50765D02*
X67500Y50000D01*
X57500Y57500D02*
Y58287D01*
X34150Y48031D02*
X36988D01*
X31883Y45765D02*
X34150Y48031D01*
X30765Y45765D02*
X31883D01*
X30000Y45000D02*
X30765Y45765D01*
X25000Y40453D02*
X25787D01*
X30000Y44665D01*
Y45000D01*
X60000Y47500D02*
Y50856D01*
X53385Y46100D02*
X58600D01*
X60000Y47500D01*
X58870Y51986D02*
X60000Y50856D01*
X58870Y51986D02*
Y56130D01*
X57500Y57500D02*
X58870Y56130D01*
X48890Y46063D02*
X49186D01*
X54066Y41890D02*
X55677D01*
X57047Y40520D01*
Y34983D02*
Y40520D01*
X49186Y46063D02*
X49262Y45987D01*
X39094Y34547D02*
Y36240D01*
X36988Y38346D02*
Y44094D01*
Y38346D02*
X39094Y36240D01*
X25453Y34547D02*
X39094D01*
X24083Y35917D02*
X25453Y34547D01*
X21083Y35917D02*
X24083D01*
X17500Y39500D02*
X21083Y35917D01*
X17500Y39500D02*
Y82500D01*
X50000Y25000D02*
X57086Y32086D01*
X57047Y34983D02*
X57086Y34945D01*
Y32086D02*
Y34945D01*
X45453Y35000D02*
X52500D01*
Y57500D02*
X57500D01*
X48012Y55905D02*
X50906D01*
X52500Y57500D01*
X48012Y51968D02*
X50890D01*
X54264Y55343D01*
X56130D01*
X57500Y56713D01*
Y57500D01*
X51453Y48031D02*
X53385Y46100D01*
X48012Y48031D02*
X51453D01*
X48012Y50000D02*
X55000D01*
X28209Y51968D02*
X36988D01*
X25787Y49547D02*
X28209Y51968D01*
X25000Y49547D02*
X25787D01*
X31240Y55905D02*
X39547Y64213D01*
X31240Y55905D02*
X36988D01*
X30787Y55453D02*
X31240Y55905D01*
X25000Y55453D02*
X30787D01*
X37500Y117500D02*
X39547Y115453D01*
Y109833D02*
Y115453D01*
X32500Y117500D02*
X37500D01*
X39547Y65000D02*
Y109833D01*
X59833D02*
X76713Y92953D01*
X165000Y130000D02*
X180000Y115000D01*
X102500Y130000D02*
X165000D01*
X102500D02*
X117500Y115000D01*
X25000Y105000D02*
X32500Y97500D01*
X76713Y92953D02*
X77500D01*
X39547Y64213D02*
Y65000D01*
X17500Y82500D02*
X32500Y97500D01*
X12500Y35000D02*
Y92500D01*
Y35000D02*
X22500Y25000D01*
X50000D01*
X85000Y20000D02*
X87500Y17500D01*
X7500Y32500D02*
Y107500D01*
Y32500D02*
X20000Y20000D01*
X85000D01*
X12500Y92500D02*
X17500Y97500D01*
X87500Y7500D02*
Y17500D01*
Y7500D02*
X92500Y2500D01*
X7500Y107500D02*
X17500Y117500D01*
X62500Y180000D02*
X81752D01*
X17500Y135000D02*
X62500Y180000D01*
X92500Y2500D02*
X179414D01*
X180000Y3086D02*
Y10000D01*
X179414Y2500D02*
X180000Y3086D01*
X140000Y80000D02*
Y87047D01*
X77500Y80000D02*
Y87047D01*
X180000Y105000D02*
X180677Y105677D01*
X191130D01*
X192500Y107047D01*
X180000Y115000D02*
X180677Y114323D01*
X191130D01*
X192500Y112953D01*
X77500Y92953D02*
X84125D01*
X86173Y95000D01*
X87500D01*
X141496Y60000D02*
X159095D01*
X120875Y112953D02*
X127500D01*
X118827Y115000D02*
X120875Y112953D01*
X117500Y115000D02*
X118827D01*
X140000Y92953D02*
X146625D01*
X148673Y95000D01*
X150000D01*
X159252Y60158D02*
Y70000D01*
X159095Y60000D02*
X159252Y60158D01*
X165748Y60748D02*
Y70000D01*
X165000Y60000D02*
X165748Y60748D01*
Y70000D02*
Y85748D01*
X175000Y95000D01*
X150000Y105000D02*
X159252Y95748D01*
Y70000D02*
Y95748D01*
X98622Y172520D02*
X100000D01*
X97941Y171839D02*
X98622Y172520D01*
X97941Y167941D02*
Y171839D01*
X97500Y167500D02*
X97941Y167941D01*
X82047Y169213D02*
Y170000D01*
X78265Y165431D02*
X82047Y169213D01*
X78265Y163265D02*
Y165431D01*
X77500Y162500D02*
X78265Y163265D01*
X87953Y170000D02*
Y179705D01*
X88248Y180000D01*
X94124D02*
X100000D01*
X88248D02*
X94124D01*
X94000Y200000D02*
X94124Y199876D01*
Y180000D02*
Y199876D01*
D14*
X266299Y140000D02*
G03*
X266299Y140000I-6299J0D01*
G01*
X61299Y10000D02*
G03*
X61299Y10000I-6299J0D01*
G01*
X266299Y30000D02*
G03*
X266299Y30000I-6299J0D01*
G01*
X66299Y200000D02*
G03*
X66299Y200000I-6299J0D01*
G01*
X0Y210000D02*
X250000D01*
X0Y0D02*
X260000D01*
X0D02*
Y210000D01*
X250000D02*
X260000Y200000D01*
Y160000D02*
Y200000D01*
Y160000D02*
X270000Y150000D01*
Y15000D02*
Y150000D01*
X260000Y5000D02*
X270000Y15000D01*
X260000Y0D02*
Y5000D01*
D16*
X171000Y98001D02*
Y101334D01*
X170334Y102000D01*
X169001D01*
X168334Y101334D01*
Y98001D01*
X167001Y98668D02*
X166335Y98001D01*
X165002D01*
X164336Y98668D01*
Y99334D01*
X165002Y100001D01*
X165668D01*
X165002D01*
X164336Y100667D01*
Y101334D01*
X165002Y102000D01*
X166335D01*
X167001Y101334D01*
X108500Y98001D02*
Y101334D01*
X107834Y102000D01*
X106501D01*
X105834Y101334D01*
Y98001D01*
X101836Y102000D02*
X104501D01*
X101836Y99334D01*
Y98668D01*
X102502Y98001D01*
X103835D01*
X104501Y98668D01*
D17*
X28129Y127975D02*
D03*
X21633D02*
D03*
X102500Y70000D02*
D03*
X108996D02*
D03*
X74252Y65000D02*
D03*
X80748D02*
D03*
X208248Y50000D02*
D03*
X201752D02*
D03*
X88248Y180000D02*
D03*
X81752D02*
D03*
X165748Y70000D02*
D03*
X159252D02*
D03*
X108996Y60000D02*
D03*
X102500D02*
D03*
X141496D02*
D03*
X135000D02*
D03*
D18*
X127500Y107047D02*
D03*
Y112953D02*
D03*
X140000Y87047D02*
D03*
Y92953D02*
D03*
X192500Y107047D02*
D03*
Y112953D02*
D03*
X25000Y55453D02*
D03*
Y49547D02*
D03*
Y34547D02*
D03*
Y40453D02*
D03*
X77500Y92953D02*
D03*
Y87047D02*
D03*
D19*
X215453Y40000D02*
D03*
X209547D02*
D03*
X39547Y35000D02*
D03*
X45453D02*
D03*
X57500Y57500D02*
D03*
X63406D02*
D03*
X57047Y40000D02*
D03*
X62953D02*
D03*
X87953Y170000D02*
D03*
X82047D02*
D03*
X159095Y60000D02*
D03*
X165000D02*
D03*
X125906D02*
D03*
X120000D02*
D03*
X39547Y65000D02*
D03*
X45453D02*
D03*
D20*
X38681Y50000D02*
D03*
D21*
X46043Y46063D02*
D03*
D22*
X42500Y45394D02*
D03*
D23*
Y53012D02*
D03*
D24*
X48012Y55905D02*
D03*
Y53937D02*
D03*
Y51968D02*
D03*
Y50000D02*
D03*
Y48031D02*
D03*
Y46063D02*
D03*
Y44094D02*
D03*
X36988D02*
D03*
Y46063D02*
D03*
Y48031D02*
D03*
Y50000D02*
D03*
Y51968D02*
D03*
Y53937D02*
D03*
Y55905D02*
D03*
D25*
X100000Y180000D02*
D03*
Y172520D02*
D03*
X108268Y176260D02*
D03*
D41*
X225000Y115000D02*
D03*
X32500Y117500D02*
D03*
X17500D02*
D03*
D42*
X225000Y95000D02*
D03*
X32500Y97500D02*
D03*
Y107500D02*
D03*
X17500Y97500D02*
D03*
Y107500D02*
D03*
X193976Y30000D02*
D03*
X248976D02*
D03*
X180000Y95000D02*
D03*
Y105000D02*
D03*
Y115000D02*
D03*
X150000Y85000D02*
D03*
Y95000D02*
D03*
Y105000D02*
D03*
Y115000D02*
D03*
X117500Y95000D02*
D03*
Y105000D02*
D03*
Y115000D02*
D03*
X87500Y85000D02*
D03*
Y95000D02*
D03*
Y105000D02*
D03*
Y115000D02*
D03*
D43*
X166024Y30000D02*
D03*
X221024D02*
D03*
X180000Y85000D02*
D03*
X117500D02*
D03*
D44*
X260000Y30000D02*
D03*
Y140000D02*
D03*
X55000Y10000D02*
D03*
X60000Y200000D02*
D03*
D45*
X200000Y10000D02*
D03*
X164000Y200000D02*
D03*
X250000D02*
D03*
X180000Y10000D02*
D03*
D46*
X210000D02*
D03*
X220000D02*
D03*
X230000D02*
D03*
X240000D02*
D03*
X250000D02*
D03*
X154000Y200000D02*
D03*
X144000D02*
D03*
X134000D02*
D03*
X124000D02*
D03*
X114000D02*
D03*
X104000D02*
D03*
X94000D02*
D03*
X84000D02*
D03*
X74000D02*
D03*
X220000D02*
D03*
X210000D02*
D03*
X200000D02*
D03*
X190000D02*
D03*
X180000D02*
D03*
X240000D02*
D03*
X230000D02*
D03*
X150000Y10000D02*
D03*
X140000D02*
D03*
X130000D02*
D03*
X120000D02*
D03*
X110000D02*
D03*
X170000D02*
D03*
X160000D02*
D03*
D47*
X250551Y119803D02*
D03*
X260551D02*
D03*
X250551Y109803D02*
D03*
X260551D02*
D03*
X250551Y99803D02*
D03*
X260551D02*
D03*
D48*
X115000Y65000D02*
D03*
X102500Y77500D02*
D03*
X222500Y40000D02*
D03*
X202500Y105000D02*
D03*
X137500Y107500D02*
D03*
X52500Y67500D02*
D03*
X67500Y50000D02*
D03*
X30000Y45000D02*
D03*
X52500Y35000D02*
D03*
X55000Y50000D02*
D03*
X140000Y80000D02*
D03*
X77500D02*
D03*
X97500Y167500D02*
D03*
X77500Y162500D02*
D03*
M02*
