G04*
G04 #@! TF.GenerationSoftware,Altium Limited,Altium Designer,20.0.12 (288)*
G04*
G04 Layer_Color=128*
%FSLAX25Y25*%
%MOIN*%
G70*
G01*
G75*
%ADD15C,0.00500*%
%ADD17C,0.00700*%
D15*
X266299Y140000D02*
G03*
X266299Y140000I-6299J0D01*
G01*
X61299Y10000D02*
G03*
X61299Y10000I-6299J0D01*
G01*
X266299Y30000D02*
G03*
X266299Y30000I-6299J0D01*
G01*
X66299Y200000D02*
G03*
X66299Y200000I-6299J0D01*
G01*
X0Y210000D02*
X250000D01*
X0Y0D02*
X260000D01*
X0D02*
Y210000D01*
X250000D02*
X260000Y200000D01*
Y160000D02*
Y200000D01*
Y160000D02*
X270000Y150000D01*
Y15000D02*
Y150000D01*
X260000Y5000D02*
X270000Y15000D01*
X260000Y0D02*
Y5000D01*
D17*
X171000Y98001D02*
Y101334D01*
X170334Y102000D01*
X169001D01*
X168334Y101334D01*
Y98001D01*
X164336Y102000D02*
X167001D01*
X164336Y99334D01*
Y98668D01*
X165002Y98001D01*
X166335D01*
X167001Y98668D01*
X108500Y98001D02*
Y101334D01*
X107834Y102000D01*
X106501D01*
X105834Y101334D01*
Y98001D01*
X104501Y98668D02*
X103835Y98001D01*
X102502D01*
X101836Y98668D01*
Y99334D01*
X102502Y100001D01*
X103168D01*
X102502D01*
X101836Y100667D01*
Y101334D01*
X102502Y102000D01*
X103835D01*
X104501Y101334D01*
M02*
