G04*
G04 #@! TF.GenerationSoftware,Altium Limited,Altium Designer,20.0.12 (288)*
G04*
G04 Layer_Color=2752767*
%FSLAX25Y25*%
%MOIN*%
G70*
G01*
G75*
%ADD15C,0.00500*%
%ADD17C,0.00700*%
%ADD57C,0.00200*%
%ADD58C,0.00267*%
D15*
X266299Y140000D02*
G03*
X266299Y140000I-6299J0D01*
G01*
X61299Y10000D02*
G03*
X61299Y10000I-6299J0D01*
G01*
X266299Y30000D02*
G03*
X266299Y30000I-6299J0D01*
G01*
X66299Y200000D02*
G03*
X66299Y200000I-6299J0D01*
G01*
X0Y210000D02*
X250000D01*
X0Y0D02*
X260000D01*
X0D02*
Y210000D01*
X250000D02*
X260000Y200000D01*
Y160000D02*
Y200000D01*
Y160000D02*
X270000Y150000D01*
Y15000D02*
Y150000D01*
X260000Y5000D02*
X270000Y15000D01*
X260000Y0D02*
Y5000D01*
D17*
X171000Y98001D02*
Y101334D01*
X170334Y102000D01*
X169001D01*
X168334Y101334D01*
Y98001D01*
X164336Y102000D02*
X167001D01*
X164336Y99334D01*
Y98668D01*
X165002Y98001D01*
X166335D01*
X167001Y98668D01*
X108500Y98001D02*
Y101334D01*
X107834Y102000D01*
X106501D01*
X105834Y101334D01*
Y98001D01*
X104501Y98668D02*
X103835Y98001D01*
X102502D01*
X101836Y98668D01*
Y99334D01*
X102502Y100001D01*
X103168D01*
X102502D01*
X101836Y100667D01*
Y101334D01*
X102502Y102000D01*
X103835D01*
X104501Y101334D01*
D57*
X31700Y96700D02*
Y98300D01*
X33300D01*
Y96700D01*
X31700D01*
Y106700D02*
Y108300D01*
X33300D01*
Y106700D01*
X31700D01*
Y116700D02*
Y118300D01*
X33300D01*
Y116700D01*
X31700D01*
X16700Y96700D02*
Y98300D01*
X18300D01*
Y96700D01*
X16700D01*
Y106700D02*
Y108300D01*
X18300D01*
Y106700D01*
X16700D01*
Y116700D02*
Y118300D01*
X18300D01*
Y116700D01*
X16700D01*
X165224Y29200D02*
Y30800D01*
X166824D01*
Y29200D01*
X165224D01*
X193176D02*
Y30800D01*
X194776D01*
Y29200D01*
X193176D01*
X220224D02*
Y30800D01*
X221824D01*
Y29200D01*
X220224D01*
X248176D02*
Y30800D01*
X249776D01*
Y29200D01*
X248176D01*
X249200Y179200D02*
Y180800D01*
X250800D01*
Y179200D01*
X249200D01*
Y161700D02*
Y163300D01*
X250800D01*
Y161700D01*
X249200D01*
X230000D02*
X229200Y163300D01*
X230800D01*
X230000Y161700D01*
Y131700D02*
X229200Y133300D01*
X230800D01*
X230000Y131700D01*
X207500Y171070D02*
X207900Y171470D01*
X208300D01*
X207900Y171870D01*
X208300Y172270D01*
X207900D01*
X207500Y172670D01*
X207100Y172270D01*
X206700D01*
X207100Y171870D01*
X206700Y171470D01*
X207100D01*
X207500Y171070D01*
Y131700D02*
X207900Y132100D01*
X208300D01*
X207900Y132500D01*
X208300Y132900D01*
X207900D01*
X207500Y133300D01*
X207100Y132900D01*
X206700D01*
X207100Y132500D01*
X206700Y132100D01*
X207100D01*
X207500Y131700D01*
X179200Y84200D02*
Y85800D01*
X180800D01*
Y84200D01*
X179200D01*
Y94200D02*
Y95800D01*
X180800D01*
Y94200D01*
X179200D01*
Y104200D02*
Y105800D01*
X180800D01*
Y104200D01*
X179200D01*
Y114200D02*
Y115800D01*
X180800D01*
Y114200D01*
X179200D01*
X149200Y84200D02*
Y85800D01*
X150800D01*
Y84200D01*
X149200D01*
Y94200D02*
Y95800D01*
X150800D01*
Y94200D01*
X149200D01*
Y104200D02*
Y105800D01*
X150800D01*
Y104200D01*
X149200D01*
Y114200D02*
Y115800D01*
X150800D01*
Y114200D01*
X149200D01*
X116700Y84200D02*
Y85800D01*
X118300D01*
Y84200D01*
X116700D01*
Y94200D02*
Y95800D01*
X118300D01*
Y94200D01*
X116700D01*
Y104200D02*
Y105800D01*
X118300D01*
Y104200D01*
X116700D01*
Y114200D02*
Y115800D01*
X118300D01*
Y114200D01*
X116700D01*
X86700Y84200D02*
Y85800D01*
X88300D01*
Y84200D01*
X86700D01*
Y94200D02*
Y95800D01*
X88300D01*
Y94200D01*
X86700D01*
Y104200D02*
Y105800D01*
X88300D01*
Y104200D01*
X86700D01*
Y114200D02*
Y115800D01*
X88300D01*
Y114200D01*
X86700D01*
X259200Y29200D02*
X259600Y30000D01*
X259200Y30800D01*
X260000Y30400D01*
X260800Y30800D01*
X260400Y30000D01*
X260800Y29200D01*
X260000Y29600D01*
X259200Y29200D01*
Y139200D02*
X259600Y140000D01*
X259200Y140800D01*
X260000Y140400D01*
X260800Y140800D01*
X260400Y140000D01*
X260800Y139200D01*
X260000Y139600D01*
X259200Y139200D01*
X54200Y9200D02*
X54600Y10000D01*
X54200Y10800D01*
X55000Y10400D01*
X55800Y10800D01*
X55400Y10000D01*
X55800Y9200D01*
X55000Y9600D01*
X54200Y9200D01*
X59200Y199200D02*
X59600Y200000D01*
X59200Y200800D01*
X60000Y200400D01*
X60800Y200800D01*
X60400Y200000D01*
X60800Y199200D01*
X60000Y199600D01*
X59200Y199200D01*
X199600Y9600D02*
Y9200D01*
X200400D01*
Y9600D01*
X200800D01*
Y10400D01*
X200400D01*
Y10800D01*
X199600D01*
Y10400D01*
X199200D01*
Y9600D01*
X199600D01*
X209600D02*
Y9200D01*
X210400D01*
Y9600D01*
X210800D01*
Y10400D01*
X210400D01*
Y10800D01*
X209600D01*
Y10400D01*
X209200D01*
Y9600D01*
X209600D01*
X219600D02*
Y9200D01*
X220400D01*
Y9600D01*
X220800D01*
Y10400D01*
X220400D01*
Y10800D01*
X219600D01*
Y10400D01*
X219200D01*
Y9600D01*
X219600D01*
X229600D02*
Y9200D01*
X230400D01*
Y9600D01*
X230800D01*
Y10400D01*
X230400D01*
Y10800D01*
X229600D01*
Y10400D01*
X229200D01*
Y9600D01*
X229600D01*
X239600D02*
Y9200D01*
X240400D01*
Y9600D01*
X240800D01*
Y10400D01*
X240400D01*
Y10800D01*
X239600D01*
Y10400D01*
X239200D01*
Y9600D01*
X239600D01*
X249600D02*
Y9200D01*
X250400D01*
Y9600D01*
X250800D01*
Y10400D01*
X250400D01*
Y10800D01*
X249600D01*
Y10400D01*
X249200D01*
Y9600D01*
X249600D01*
X163600Y199600D02*
Y199200D01*
X164400D01*
Y199600D01*
X164800D01*
Y200400D01*
X164400D01*
Y200800D01*
X163600D01*
Y200400D01*
X163200D01*
Y199600D01*
X163600D01*
X153600D02*
Y199200D01*
X154400D01*
Y199600D01*
X154800D01*
Y200400D01*
X154400D01*
Y200800D01*
X153600D01*
Y200400D01*
X153200D01*
Y199600D01*
X153600D01*
X143600D02*
Y199200D01*
X144400D01*
Y199600D01*
X144800D01*
Y200400D01*
X144400D01*
Y200800D01*
X143600D01*
Y200400D01*
X143200D01*
Y199600D01*
X143600D01*
X133600D02*
Y199200D01*
X134400D01*
Y199600D01*
X134800D01*
Y200400D01*
X134400D01*
Y200800D01*
X133600D01*
Y200400D01*
X133200D01*
Y199600D01*
X133600D01*
X123600D02*
Y199200D01*
X124400D01*
Y199600D01*
X124800D01*
Y200400D01*
X124400D01*
Y200800D01*
X123600D01*
Y200400D01*
X123200D01*
Y199600D01*
X123600D01*
X113600D02*
Y199200D01*
X114400D01*
Y199600D01*
X114800D01*
Y200400D01*
X114400D01*
Y200800D01*
X113600D01*
Y200400D01*
X113200D01*
Y199600D01*
X113600D01*
X103600D02*
Y199200D01*
X104400D01*
Y199600D01*
X104800D01*
Y200400D01*
X104400D01*
Y200800D01*
X103600D01*
Y200400D01*
X103200D01*
Y199600D01*
X103600D01*
X93600D02*
Y199200D01*
X94400D01*
Y199600D01*
X94800D01*
Y200400D01*
X94400D01*
Y200800D01*
X93600D01*
Y200400D01*
X93200D01*
Y199600D01*
X93600D01*
X83600D02*
Y199200D01*
X84400D01*
Y199600D01*
X84800D01*
Y200400D01*
X84400D01*
Y200800D01*
X83600D01*
Y200400D01*
X83200D01*
Y199600D01*
X83600D01*
X73600D02*
Y199200D01*
X74400D01*
Y199600D01*
X74800D01*
Y200400D01*
X74400D01*
Y200800D01*
X73600D01*
Y200400D01*
X73200D01*
Y199600D01*
X73600D01*
X249600D02*
Y199200D01*
X250400D01*
Y199600D01*
X250800D01*
Y200400D01*
X250400D01*
Y200800D01*
X249600D01*
Y200400D01*
X249200D01*
Y199600D01*
X249600D01*
X219600D02*
Y199200D01*
X220400D01*
Y199600D01*
X220800D01*
Y200400D01*
X220400D01*
Y200800D01*
X219600D01*
Y200400D01*
X219200D01*
Y199600D01*
X219600D01*
X209600D02*
Y199200D01*
X210400D01*
Y199600D01*
X210800D01*
Y200400D01*
X210400D01*
Y200800D01*
X209600D01*
Y200400D01*
X209200D01*
Y199600D01*
X209600D01*
X199600D02*
Y199200D01*
X200400D01*
Y199600D01*
X200800D01*
Y200400D01*
X200400D01*
Y200800D01*
X199600D01*
Y200400D01*
X199200D01*
Y199600D01*
X199600D01*
X189600D02*
Y199200D01*
X190400D01*
Y199600D01*
X190800D01*
Y200400D01*
X190400D01*
Y200800D01*
X189600D01*
Y200400D01*
X189200D01*
Y199600D01*
X189600D01*
X179600D02*
Y199200D01*
X180400D01*
Y199600D01*
X180800D01*
Y200400D01*
X180400D01*
Y200800D01*
X179600D01*
Y200400D01*
X179200D01*
Y199600D01*
X179600D01*
X239600D02*
Y199200D01*
X240400D01*
Y199600D01*
X240800D01*
Y200400D01*
X240400D01*
Y200800D01*
X239600D01*
Y200400D01*
X239200D01*
Y199600D01*
X239600D01*
X229600D02*
Y199200D01*
X230400D01*
Y199600D01*
X230800D01*
Y200400D01*
X230400D01*
Y200800D01*
X229600D01*
Y200400D01*
X229200D01*
Y199600D01*
X229600D01*
X179600Y9600D02*
Y9200D01*
X180400D01*
Y9600D01*
X180800D01*
Y10400D01*
X180400D01*
Y10800D01*
X179600D01*
Y10400D01*
X179200D01*
Y9600D01*
X179600D01*
X149600D02*
Y9200D01*
X150400D01*
Y9600D01*
X150800D01*
Y10400D01*
X150400D01*
Y10800D01*
X149600D01*
Y10400D01*
X149200D01*
Y9600D01*
X149600D01*
X139600D02*
Y9200D01*
X140400D01*
Y9600D01*
X140800D01*
Y10400D01*
X140400D01*
Y10800D01*
X139600D01*
Y10400D01*
X139200D01*
Y9600D01*
X139600D01*
X129600D02*
Y9200D01*
X130400D01*
Y9600D01*
X130800D01*
Y10400D01*
X130400D01*
Y10800D01*
X129600D01*
Y10400D01*
X129200D01*
Y9600D01*
X129600D01*
X119600D02*
Y9200D01*
X120400D01*
Y9600D01*
X120800D01*
Y10400D01*
X120400D01*
Y10800D01*
X119600D01*
Y10400D01*
X119200D01*
Y9600D01*
X119600D01*
X109600D02*
Y9200D01*
X110400D01*
Y9600D01*
X110800D01*
Y10400D01*
X110400D01*
Y10800D01*
X109600D01*
Y10400D01*
X109200D01*
Y9600D01*
X109600D01*
X169600D02*
Y9200D01*
X170400D01*
Y9600D01*
X170800D01*
Y10400D01*
X170400D01*
Y10800D01*
X169600D01*
Y10400D01*
X169200D01*
Y9600D01*
X169600D01*
X159600D02*
Y9200D01*
X160400D01*
Y9600D01*
X160800D01*
Y10400D01*
X160400D01*
Y10800D01*
X159600D01*
Y10400D01*
X159200D01*
Y9600D01*
X159600D01*
X249751Y119003D02*
Y120603D01*
X251351D01*
Y119003D01*
X249751D01*
X259751D02*
Y120603D01*
X261351D01*
Y119003D01*
X259751D01*
X249751Y109003D02*
Y110603D01*
X251351D01*
Y109003D01*
X249751D01*
X259751D02*
Y110603D01*
X261351D01*
Y109003D01*
X259751D01*
X249751Y99003D02*
Y100603D01*
X251351D01*
Y99003D01*
X249751D01*
X259751D02*
Y100603D01*
X261351D01*
Y99003D01*
X259751D01*
X221700Y39200D02*
X222100D01*
X222500Y39600D01*
X222900Y39200D01*
X223300D01*
Y39600D01*
X222900Y40000D01*
X223300Y40400D01*
Y40800D01*
X222900D01*
X222500Y40400D01*
X222100Y40800D01*
X221700D01*
Y40400D01*
X222100Y40000D01*
X221700Y39600D01*
Y39200D01*
X201700Y104200D02*
X202100D01*
X202500Y104600D01*
X202900Y104200D01*
X203300D01*
Y104600D01*
X202900Y105000D01*
X203300Y105400D01*
Y105800D01*
X202900D01*
X202500Y105400D01*
X202100Y105800D01*
X201700D01*
Y105400D01*
X202100Y105000D01*
X201700Y104600D01*
Y104200D01*
X136700Y106700D02*
X137100D01*
X137500Y107100D01*
X137900Y106700D01*
X138300D01*
Y107100D01*
X137900Y107500D01*
X138300Y107900D01*
Y108300D01*
X137900D01*
X137500Y107900D01*
X137100Y108300D01*
X136700D01*
Y107900D01*
X137100Y107500D01*
X136700Y107100D01*
Y106700D01*
X51700Y66700D02*
X52100D01*
X52500Y67100D01*
X52900Y66700D01*
X53300D01*
Y67100D01*
X52900Y67500D01*
X53300Y67900D01*
Y68300D01*
X52900D01*
X52500Y67900D01*
X52100Y68300D01*
X51700D01*
Y67900D01*
X52100Y67500D01*
X51700Y67100D01*
Y66700D01*
X66700Y49200D02*
X67100D01*
X67500Y49600D01*
X67900Y49200D01*
X68300D01*
Y49600D01*
X67900Y50000D01*
X68300Y50400D01*
Y50800D01*
X67900D01*
X67500Y50400D01*
X67100Y50800D01*
X66700D01*
Y50400D01*
X67100Y50000D01*
X66700Y49600D01*
Y49200D01*
X29200Y44200D02*
X29600D01*
X30000Y44600D01*
X30400Y44200D01*
X30800D01*
Y44600D01*
X30400Y45000D01*
X30800Y45400D01*
Y45800D01*
X30400D01*
X30000Y45400D01*
X29600Y45800D01*
X29200D01*
Y45400D01*
X29600Y45000D01*
X29200Y44600D01*
Y44200D01*
X51700Y34200D02*
X52100D01*
X52500Y34600D01*
X52900Y34200D01*
X53300D01*
Y34600D01*
X52900Y35000D01*
X53300Y35400D01*
Y35800D01*
X52900D01*
X52500Y35400D01*
X52100Y35800D01*
X51700D01*
Y35400D01*
X52100Y35000D01*
X51700Y34600D01*
Y34200D01*
X54200Y49200D02*
X54600D01*
X55000Y49600D01*
X55400Y49200D01*
X55800D01*
Y49600D01*
X55400Y50000D01*
X55800Y50400D01*
Y50800D01*
X55400D01*
X55000Y50400D01*
X54600Y50800D01*
X54200D01*
Y50400D01*
X54600Y50000D01*
X54200Y49600D01*
Y49200D01*
X139200Y79200D02*
X139600D01*
X140000Y79600D01*
X140400Y79200D01*
X140800D01*
Y79600D01*
X140400Y80000D01*
X140800Y80400D01*
Y80800D01*
X140400D01*
X140000Y80400D01*
X139600Y80800D01*
X139200D01*
Y80400D01*
X139600Y80000D01*
X139200Y79600D01*
Y79200D01*
X76700D02*
X77100D01*
X77500Y79600D01*
X77900Y79200D01*
X78300D01*
Y79600D01*
X77900Y80000D01*
X78300Y80400D01*
Y80800D01*
X77900D01*
X77500Y80400D01*
X77100Y80800D01*
X76700D01*
Y80400D01*
X77100Y80000D01*
X76700Y79600D01*
Y79200D01*
X96700Y166700D02*
X97100D01*
X97500Y167100D01*
X97900Y166700D01*
X98300D01*
Y167100D01*
X97900Y167500D01*
X98300Y167900D01*
Y168300D01*
X97900D01*
X97500Y167900D01*
X97100Y168300D01*
X96700D01*
Y167900D01*
X97100Y167500D01*
X96700Y167100D01*
Y166700D01*
X76700Y161700D02*
X77100D01*
X77500Y162100D01*
X77900Y161700D01*
X78300D01*
Y162100D01*
X77900Y162500D01*
X78300Y162900D01*
Y163300D01*
X77900D01*
X77500Y162900D01*
X77100Y163300D01*
X76700D01*
Y162900D01*
X77100Y162500D01*
X76700Y162100D01*
Y161700D01*
D58*
X230800Y105000D02*
G03*
X230800Y105000I-800J0D01*
G01*
X225800Y110000D02*
G03*
X225800Y110000I-800J0D01*
G01*
Y100000D02*
G03*
X225800Y100000I-800J0D01*
G01*
M02*
