M48
;Layer_Color=9474304
;FILE_FORMAT=2:5
INCH,LZ
;TYPE=PLATED
T1F00S00C0.02362
T2F00S00C0.02800
T3F00S00C0.03000
T4F00S00C0.03150
T5F00S00C0.03346
T6F00S00C0.03543
T7F00S00C0.12598
%
T01
X0225Y01
X023Y0105
X0225Y011
T02
X02225Y004
X02025Y0105
X01375Y01075
X014Y008
X00775
X00525Y00675
X0055Y005
X00675
X00525Y0035
X00775Y01625
X00975Y01675
X003Y0045
T03
X011Y001
X012
X013
X014
X015
X016
X017
X018
X02
X021
X022
X023
X024
X025
X019Y02
X018
X0164
X0154
X0144
X0134
X0124
X0114
X0104
X0094
X0084
X0074
X02
X021
X022
X023
X024
X025
T04
X02075Y01325
Y017187
T05
X023Y01325
Y01625
T06
X0166024Y003
X0193976
X0221024
X0248976
X0250551Y0099803
Y0109803
Y0119803
X0260551
Y0109803
Y0099803
X025Y01625
Y018
X018Y0115
Y0105
Y0095
Y0085
X015
Y0095
Y0105
Y0115
X01175
Y0105
Y0095
Y0085
X00875
Y0095
Y0105
Y0115
X00325Y01175
Y01075
Y00975
X00175
Y01075
Y01175
T07
X0055Y001
X026Y003
Y014
X006Y02
M30
